<svg width="113.000000" height="39.000000" viewBox="0 0 113 39" fill="none" xmlns="http://www.w3.org/2000/svg" xmlns:xlink="http://www.w3.org/1999/xlink">
	<desc>
			Created with Pixso.
	</desc>
	<defs>
		<clipPath id="clip1_102">
			<rect id="Frame 9" rx="9.000000" width="111.000000" height="37.000000" transform="translate(1.000000 1.000000)" fill="white" fill-opacity="0"/>
		</clipPath>
	</defs>
	<rect id="Frame 9" rx="9.000000" width="111.000000" height="37.000000" transform="translate(1.000000 1.000000)" fill="#38FF4C" fill-opacity="1.000000"/>
	<g clip-path="url(#clip1_102)">
		<path id="Buy Now" d="M17.76 23.54L17.76 25.1L23.82 25.1Q25.84 25.1 26.8 24.2Q27.19 23.83 27.42 23.39Q27.78 22.73 27.78 21.88Q27.78 20.93 27.34 20.26Q27.28 20.16 27.22 20.08C26.84 19.58 26.37 19.24 25.8 19.04Q26.31 18.77 26.66 18.36Q26.84 18.16 26.98 17.94C27.26 17.47 27.4 16.96 27.4 16.42Q27.4 15.56 27.02 14.93Q26.73 14.46 26.24 14.12Q25.1 13.32 22.9 13.32L17.76 13.32L17.76 14.88L19.6 14.88L19.6 23.54L17.76 23.54ZM61.93 13.32L57.29 13.32L57.29 14.88L59.13 14.88L59.15 23.54L57.27 23.54L57.27 25.1L62.57 25.1L62.57 23.54L60.89 23.54L60.85 14.88L66.37 25.1L68.53 25.1L68.53 14.88L70.45 14.88L70.45 13.32L65.15 13.32L65.15 14.88L66.79 14.88L66.79 22.42L61.93 13.32ZM23.8 18.48L21.4 18.48L21.4 14.88L23.12 14.88Q24.63 14.88 25.18 15.6Q25.5 16.02 25.5 16.68C25.5 17.22 25.35 17.66 25.06 18Q25 18.06 24.94 18.11Q24.52 18.48 23.8 18.48ZM78.44 16.66C77.78 16.28 76.98 16.1 76.06 16.1C75.17 16.1 74.39 16.28 73.72 16.66C73.06 17.03 72.54 17.56 72.16 18.26Q71.62 19.29 71.62 20.78Q71.62 22.22 72.16 23.26C72.54 23.95 73.06 24.48 73.72 24.86C74.39 25.23 75.17 25.42 76.06 25.42C77.44 25.42 78.53 25 79.34 24.18C80.17 23.35 80.58 22.22 80.58 20.78C80.58 19.79 80.4 18.95 80.02 18.26C79.65 17.56 79.12 17.03 78.44 16.66ZM35.62 25.18C36.16 25.02 36.64 24.8 37.06 24.54L39.78 25.48L40.24 24L38.4 23.38L38.4 16.42L34.98 16.42L34.98 17.82L36.64 17.82L36.64 23.3C36.34 23.48 35.95 23.64 35.48 23.76C35.03 23.88 34.61 23.94 34.22 23.94C33.52 23.94 33 23.76 32.68 23.4C32.36 23.02 32.2 22.43 32.2 21.62L32.2 16.42L28.78 16.42L28.78 17.82L30.44 17.82L30.44 21.96Q30.44 23.74 31.32 24.58C31.92 25.14 32.86 25.42 34.12 25.42Q34.82 25.42 35.62 25.18ZM46.25 23.75L48.37 17.82L47.29 17.82L47.31 16.42L51.51 16.42L51.51 17.82L50.03 17.82L46.67 26.82C46.31 27.76 45.87 28.48 45.33 28.96Q45.05 29.22 44.71 29.39Q44.14 29.68 43.41 29.68C43.2 29.68 42.97 29.66 42.73 29.62C42.49 29.58 42.24 29.51 41.97 29.42L42.27 28.06C42.46 28.12 42.64 28.17 42.81 28.2C42.99 28.24 43.15 28.26 43.31 28.26C43.67 28.26 43.97 28.19 44.19 28.06C44.43 27.94 44.65 27.7 44.85 27.36C45.05 27.02 45.27 26.53 45.49 25.88L45.56 25.68L41.87 17.82L40.43 17.82L40.43 16.42L44.79 16.42L44.79 17.82L43.67 17.82L46.25 23.75ZM82.29 17.82L84.67 25.1L86.49 25.1L88.25 19.74L89.93 25.1L91.71 25.1L94.11 17.82L95.69 17.82L95.69 16.42L91.41 16.42L91.41 17.82L92.53 17.82L91.41 21.34L90.83 23.28L90.23 21.26L89.13 17.66L87.39 17.66L86.31 21.18L85.71 23.24L85.07 21.14L84.05 17.82L85.31 17.82L85.31 16.42L80.71 16.42L80.71 17.82L82.29 17.82ZM74.06 18.37C74.52 17.82 75.19 17.54 76.08 17.54Q77.16 17.54 77.81 18.06Q77.98 18.2 78.12 18.37C78.58 18.94 78.8 19.74 78.8 20.78C78.8 21.8 78.58 22.6 78.12 23.16Q78 23.31 77.85 23.43Q77.19 23.98 76.08 23.98C75.19 23.98 74.52 23.7 74.06 23.16C73.62 22.6 73.4 21.8 73.4 20.78C73.4 19.74 73.62 18.94 74.06 18.37ZM23.66 23.52L21.4 23.52L21.4 19.84L23.78 19.84Q24.8 19.84 25.34 20.29Q25.45 20.39 25.54 20.51Q25.88 20.94 25.88 21.64C25.88 22.26 25.68 22.74 25.3 23.06C24.92 23.36 24.38 23.52 23.66 23.52Z" fill="#000000" fill-opacity="1.000000" fill-rule="evenodd"/>
	</g>
	<rect id="Frame 9" rx="9.000000" width="111.000000" height="37.000000" transform="translate(1.000000 1.000000)" stroke="#38FF4C" stroke-opacity="1.000000" stroke-width="2.000000"/>
</svg>
