<svg width="117.000000" height="39.000000" viewBox="0 0 117 39" fill="none" xmlns="http://www.w3.org/2000/svg" xmlns:xlink="http://www.w3.org/1999/xlink">
	<desc>
			Created with Pixso.
	</desc>
	<defs>
		<clipPath id="clip1_99">
			<rect id="Frame 8" rx="9.000000" width="115.000000" height="37.000000" transform="translate(1.000000 1.000000)" fill="white" fill-opacity="0"/>
		</clipPath>
	</defs>
	<g clip-path="url(#clip1_99)">
		<path id="Add to card" d="M30.77 24.56L33.39 25.48L33.85 24.02L32.03 23.38L32.03 13.08L28.83 12L28.35 13.42L30.27 14.08L30.27 16.5C29.93 16.36 29.58 16.26 29.21 16.2C28.83 16.13 28.48 16.1 28.15 16.1Q26.33 16.1 25.2 16.98Q25.01 17.12 24.85 17.29Q24.72 17.42 24.61 17.56Q23.69 18.7 23.69 20.6Q23.69 22.77 24.76 24.03Q24.8 24.08 24.85 24.14Q25.09 24.4 25.38 24.62Q26.47 25.42 28.15 25.42C29.09 25.42 29.97 25.13 30.77 24.56ZM42.17 24.56L44.79 25.48L45.25 24.02L43.43 23.38L43.43 13.08L40.23 12L39.75 13.42L41.67 14.08L41.67 16.5C41.34 16.36 40.99 16.26 40.61 16.2C40.24 16.13 39.89 16.1 39.55 16.1Q37.73 16.1 36.61 16.98Q36.42 17.12 36.25 17.29Q36.13 17.42 36.02 17.56Q35.09 18.7 35.09 20.6Q35.09 22.77 36.16 24.03Q36.21 24.08 36.25 24.14Q36.5 24.4 36.79 24.62Q37.88 25.42 39.55 25.42Q40.12 25.42 40.64 25.28Q41.45 25.07 42.17 24.56ZM108.83 24.56L111.45 25.48L111.91 24.02L110.09 23.38L110.09 13.08L106.89 12L106.41 13.42L108.33 14.08L108.33 16.5C108 16.36 107.65 16.26 107.27 16.2C106.9 16.13 106.55 16.1 106.21 16.1Q104.39 16.1 103.27 16.98Q103.08 17.12 102.91 17.29C102.14 18.08 101.75 19.18 101.75 20.6C101.75 22.1 102.14 23.28 102.91 24.14Q103.16 24.4 103.45 24.62Q104.54 25.42 106.21 25.42C107.16 25.42 108.03 25.13 108.83 24.56ZM10.18 23.54L10.18 25.1L14.98 25.1L14.98 23.54L13.74 23.54L14.4 21.74L18.62 21.74L19.26 23.54L18.04 23.54L18.04 25.1L23 25.1L23 23.54L21.12 23.54L17.5 13.32L13.42 13.32L13.42 14.88L15.36 14.88L12.12 23.54L10.18 23.54ZM54.24 25.1C54.69 25.31 55.19 25.42 55.72 25.42Q56.2 25.42 56.68 25.28C57 25.18 57.31 25.08 57.6 24.96L57.26 23.68C56.74 23.93 56.28 24.06 55.88 24.06C55.32 24.06 54.95 23.8 54.76 23.3C54.59 22.78 54.5 22.09 54.5 21.24L54.5 17.82L56.98 17.82L56.98 16.42L54.5 16.42L54.5 14.1L52.78 14.54L52.78 16.42L51.12 16.42L51.12 17.82L52.78 17.82L52.78 22.04C52.78 22.89 52.91 23.56 53.18 24.06Q53.52 24.68 54.05 24.99Q54.14 25.05 54.24 25.1ZM18.12 20.32L14.92 20.32L16.6 15.42L18.12 20.32ZM79.15 17.52C79.4 17.56 79.67 17.62 79.97 17.71L80.23 19.26L81.69 18.94L81.35 16.66C80.79 16.48 80.27 16.34 79.79 16.24C79.32 16.12 78.83 16.06 78.31 16.06C77.41 16.06 76.61 16.24 75.91 16.6C75.21 16.95 74.67 17.49 74.27 18.2Q73.67 19.24 73.67 20.78C73.67 21.74 73.85 22.57 74.23 23.28C74.6 23.97 75.12 24.5 75.79 24.88C76.47 25.24 77.25 25.42 78.13 25.42C78.67 25.42 79.14 25.36 79.53 25.26C79.91 25.16 80.27 25.02 80.59 24.84C80.92 24.65 81.26 24.43 81.61 24.18L80.87 23.1C80.44 23.38 80.01 23.59 79.57 23.74C79.14 23.88 78.71 23.96 78.29 23.96C77.51 23.96 76.85 23.69 76.29 23.16C75.74 22.61 75.47 21.82 75.47 20.78Q75.47 19.12 76.23 18.29C76.73 17.74 77.42 17.45 78.29 17.45Q78.77 17.45 79.15 17.52ZM64.96 16.66C64.29 16.28 63.5 16.1 62.58 16.1C61.69 16.1 60.91 16.28 60.24 16.66C59.57 17.03 59.05 17.56 58.68 18.26Q58.14 19.29 58.14 20.78Q58.14 22.22 58.68 23.26C59.05 23.95 59.57 24.48 60.24 24.86C60.91 25.23 61.69 25.42 62.58 25.42C63.95 25.42 65.05 25 65.86 24.18C66.69 23.35 67.1 22.22 67.1 20.78C67.1 19.79 66.91 18.95 66.54 18.26C66.17 17.56 65.64 17.03 64.96 16.66ZM86.66 25.42C87.66 25.42 88.6 25.13 89.5 24.56L92.16 25.48L92.62 24.04L90.78 23.44L90.78 20C90.78 18.71 90.46 17.75 89.82 17.1Q89.74 17.01 89.65 16.93Q88.72 16.1 87.04 16.1Q86.3 16.1 85.54 16.24C85.03 16.33 84.52 16.47 84.02 16.66L83.68 18.56L85.12 18.82L85.32 17.74C85.58 17.66 85.86 17.6 86.16 17.56C86.45 17.52 86.75 17.5 87.06 17.5C87.7 17.5 88.18 17.71 88.52 18.14C88.85 18.55 89.02 19.19 89.02 20.06L86.54 20.06Q84.39 20.06 83.59 21.09Q83.11 21.72 83.12 22.72C83.13 23.6 83.44 24.27 84.04 24.74C84.64 25.19 85.51 25.42 86.66 25.42ZM97.84 16.36C97.28 16.52 96.76 16.76 96.28 17.1L93.54 16.16L93.08 17.56L95 18.21L95 23.7L93.32 23.7L93.32 25.1L98.7 25.1L98.7 23.7L96.74 23.7L96.76 18.32C97.09 18.1 97.46 17.94 97.88 17.82Q98.27 17.7 98.67 17.65Q98.9 17.62 99.14 17.62L99.34 18.71L100.8 18.42L100.46 16.21C100.31 16.14 100 16.1 99.52 16.1C98.96 16.1 98.4 16.18 97.84 16.36ZM29.21 23.8C28.83 23.92 28.49 23.98 28.17 23.98C27.37 23.98 26.72 23.67 26.23 23.06C25.73 22.43 25.49 21.6 25.49 20.58Q25.49 19.34 26.08 18.55Q26.15 18.46 26.23 18.37C26.72 17.82 27.37 17.54 28.17 17.54C28.51 17.54 28.88 17.58 29.27 17.68C29.65 17.76 29.99 17.86 30.27 18L30.27 23.32C29.95 23.52 29.59 23.68 29.21 23.8ZM40.61 23.8C40.24 23.92 39.89 23.98 39.57 23.98C38.77 23.98 38.13 23.67 37.63 23.06C37.14 22.43 36.89 21.6 36.89 20.58Q36.89 19.34 37.49 18.55Q37.56 18.46 37.63 18.37C38.13 17.82 38.77 17.54 39.57 17.54C39.92 17.54 40.29 17.58 40.67 17.68C41.06 17.76 41.39 17.86 41.67 18L41.67 23.32C41.35 23.52 41 23.68 40.61 23.8ZM60.58 18.37C61.03 17.82 61.71 17.54 62.6 17.54Q63.68 17.54 64.33 18.06Q64.5 18.2 64.64 18.37C65.09 18.94 65.32 19.74 65.32 20.78C65.32 21.8 65.09 22.6 64.64 23.16Q64.51 23.31 64.36 23.43Q63.71 23.98 62.6 23.98C61.71 23.98 61.03 23.7 60.58 23.16C60.14 22.6 59.92 21.8 59.92 20.78C59.92 19.74 60.14 18.94 60.58 18.37ZM107.27 23.8C106.9 23.92 106.55 23.98 106.23 23.98Q105.61 23.98 105.11 23.72Q104.65 23.5 104.29 23.06Q103.55 22.12 103.55 20.58Q103.55 19.34 104.15 18.55Q104.22 18.46 104.29 18.37Q104.59 18.04 104.96 17.84Q105.51 17.54 106.23 17.54C106.58 17.54 106.95 17.58 107.33 17.68C107.72 17.76 108.05 17.86 108.33 18L108.33 23.32C108.01 23.52 107.66 23.68 107.27 23.8ZM85.36 21.72C85.65 21.49 86.06 21.38 86.6 21.38L89.02 21.4L89.02 23.32Q88.73 23.52 88.41 23.67Q87.65 24.02 86.74 24.02Q85.54 24.02 85.13 23.45Q84.92 23.15 84.92 22.7Q84.92 22.26 85.12 21.97Q85.22 21.82 85.36 21.72Z" fill="#000000" fill-opacity="1.000000" fill-rule="evenodd"/>
	</g>
	<rect id="Frame 8" rx="9.000000" width="115.000000" height="37.000000" transform="translate(1.000000 1.000000)" stroke="#38FF4C" stroke-opacity="1.000000" stroke-width="2.000000"/>
</svg>
